<svg xmlns="http://www.w3.org/2000/svg" xml:space="preserve" width="1228.8925" height="272.74127" viewBox="0 0 1228.8924 272.74127"><defs><clipPath id="a" clipPathUnits="userSpaceOnUse"><path d="M0 1417.32h1417.32V0H0Z"/></clipPath></defs><g clip-path="url(#a)" style="stroke-width:.497751" transform="matrix(2.67872 0 0 -2.67872 -1178.125 3043.33)"><g style="stroke-width:.497751"><path d="m0 0 3.974 11.51c6.986-4.522 18.774-8.632 28.089-8.632 14.115 0 23.296 7.537 23.296 17.809 0 8.909-5.482 13.841-17.813 16.446l-10.824 2.468C13.703 42.479 1.779 51.11 1.779 66.598c0 15.07 12.337 26.446 33.028 26.446 13.017 0 25.211-4.248 31.517-9.044l-4.523-10.278c-6.167 4.247-15.898 8.22-27.133 8.22-12.331 0-19.87-5.753-19.87-14.523 0-9.181 6.99-14.663 17.265-16.857l10.141-2.054c16.991-3.836 26.311-11.375 26.311-27.133 0-17.813-15.759-30.148-36.04-30.148C20.416-8.773 7.124-4.249 0 0" style="fill:#231f20;fill-opacity:1;fill-rule:nonzero;stroke:none;stroke-width:.497751" transform="translate(439.81 1043.07)"/></g><g style="stroke-width:.497751"><path d="m0 0 3.973 11.51c6.987-4.522 18.773-8.632 28.088-8.632 14.117 0 23.298 7.537 23.298 17.809 0 8.909-5.483 13.841-17.815 16.446L26.72 39.601C13.703 42.479 1.779 51.11 1.779 66.598c0 15.07 12.335 26.446 33.026 26.446 13.018 0 25.212-4.248 31.518-9.044l-4.522-10.278c-6.167 4.247-15.898 8.22-27.133 8.22-12.333 0-19.872-5.753-19.872-14.523 0-9.181 6.992-14.663 17.265-16.857l10.143-2.054c16.991-3.836 26.311-11.375 26.311-27.133 0-17.813-15.758-30.148-36.041-30.148C20.416-8.773 7.122-4.249 0 0" style="fill:#231f20;fill-opacity:1;fill-rule:nonzero;stroke:none;stroke-width:.497751" transform="translate(513.991 1043.07)"/></g><g style="stroke-width:.497751"><path d="M0 0v2.195C0 33.85 22.47 50.978 46.041 50.978c12.606 0 23.159-3.29 29.734-8.083l-4.658-10.416c-6.164 4.247-13.974 7.26-25.215 7.26-17.951 0-32.884-15.62-32.884-37.133V0c0-19.319 11.922-38.642 32.063-38.642 10.553 0 17.951 2.739 21.924 6.307V-6.85H47.274V3.566h31.792v-41.521c-6.441-7.264-18.636-12.473-34.804-12.473C19.319-50.428 0-30.694 0 0" style="fill:#231f20;fill-opacity:1;fill-rule:nonzero;stroke:none;stroke-width:.497751" transform="translate(588.854 1084.725)"/></g><g style="stroke-width:.497751"><path d="M0 0c14.798 0 23.295 6.854 23.295 19.734 0 13.841-7.675 19.869-23.43 19.869h-19.872V0Zm-32.065 50.292H1.506c21.924 0 34.393-9.182 34.393-29.872 0-20.558-14.521-31.242-33.298-31.242h-22.608v-37.824h-12.058z" style="fill:#f04e37;fill-opacity:1;fill-rule:nonzero;stroke:none;stroke-width:.497751" transform="translate(716.62 1082.943)"/></g><g style="stroke-width:.497751"><path d="m0 0-35.492 45.61h14.114l28.09-34.375L33.299 45.61h13.564L12.332-.136v-53.329H0Z" style="fill:#f04e37;fill-opacity:1;fill-rule:nonzero;stroke:none;stroke-width:.497751" transform="translate(849.225 1087.763)"/></g><g style="stroke-width:.497751"><path d="M0 0q.001 3.14 2.17 5.455Q4.337 7.77 7.924 7.77c2.187 0 4.01-.772 5.452-2.315C14.817 3.912 15.542 2.093 15.542 0c0-2.187-.725-4.033-2.166-5.528-1.442-1.496-3.265-2.244-5.452-2.244q-3.587 0-5.754 2.244C.725-4.033 0-2.187 0 0" style="fill:#f04e37;fill-opacity:1;fill-rule:nonzero;stroke:none;stroke-width:.497751" transform="translate(883.03 1042.07)"/></g><g style="stroke-width:.497751"><path d="m0 0-37.779 98.935h-13.013L-89.131 0h13.437l30.782 84.546 17.068-47.548 6.199-17.27L-14.273 0Z" style="fill:#f04e37;fill-opacity:1;fill-rule:nonzero;stroke:none;stroke-width:.497751" transform="translate(828.662 1034.3)"/></g><g style="stroke-width:.497751"><path d="M0 0h-51.83v11.213H.192Z" style="fill:#f04e37;fill-opacity:1;fill-rule:nonzero;stroke:none;stroke-width:.497751" transform="translate(833.416 1072.08)"/></g></g></svg>